<svg width="41" height="69" viewBox="0 0 41 69" fill="none" xmlns="http://www.w3.org/2000/svg">
<path d="M40.3064 49.1187C39.9835 48.3983 39.1939 48.0095 38.4232 48.1924C37.6536 48.376 37.1243 49.0787 37.1628 49.8661C37.1645 49.8998 37.2998 53.2269 35.0639 53.4774C34.3661 53.5574 33.7158 53.3258 33.2747 52.8496C32.8578 52.399 32.6686 51.7792 32.7265 51.0577C32.8062 50.0668 33.4599 49.1995 34.363 48.0004C34.8367 47.3708 35.3735 46.6584 35.8832 45.8362C37.9722 42.4708 39.4953 37.0814 38.3656 33.2934C36.7599 27.9056 32.1431 25.6889 31.9464 25.5962C31.2049 25.2503 30.3349 25.511 29.8854 26.1949C29.4375 26.8787 29.5763 27.7998 30.1928 28.3373C30.2455 28.3842 31.4825 29.4929 31.5736 32.167C31.6092 33.1911 31.3196 34.0492 30.7381 34.6485C30.2094 35.1934 29.4588 35.5067 28.6789 35.5067C27.7706 35.5067 26.9798 35.0819 26.5084 34.3437C25.045 32.0435 26.5882 28.9016 28.0803 25.8627C28.3045 25.4053 28.5258 24.9571 28.7311 24.5174C31.1465 19.3789 29.4457 13.4131 24.4991 9.67369C20.5842 6.71358 22.3269 2.46877 22.3997 2.29781C22.7219 1.5648 22.4673 0.708342 21.7964 0.269223C21.1238 -0.171038 20.2343 -0.0612587 19.6895 0.524804C15.7339 4.7765 15.4999 9.75377 19.0151 14.9185C20.1431 16.5749 20.5038 18.0307 20.0301 19.0152C19.7176 19.667 19.1235 19.9421 18.7978 19.9684C16.8045 20.1227 16.3653 18.2587 16.3051 17.9077C16.1967 17.1861 15.6227 16.6241 14.8984 16.5263C14.1736 16.4286 13.4711 16.8208 13.1764 17.4886C10.7553 22.9467 12.4143 26.4362 13.8783 29.5152C14.6788 31.1991 15.4347 32.7891 15.5683 34.7024C15.7937 37.9072 15.2959 39.587 13.6662 41.1216C13.1374 41.619 12.2824 41.9289 11.4349 41.9289C10.5839 41.9289 9.84651 41.6241 9.41344 41.093C7.09499 38.2541 10.5076 33.4369 10.5397 33.3918C11.0036 32.7526 10.9451 31.8744 10.4009 31.3027C9.85615 30.7286 8.98049 30.6245 8.31588 31.0528C0.663791 35.9769 -1.4694 46.946 0.942424 54.2866C3.88655 63.2433 11.1016 66.4893 12.1 66.8998C14.7133 68.2744 17.7973 69 21.0258 69C26.6449 69 32.0068 66.8731 36.1215 63.0113C43.367 56.2152 40.4344 49.4072 40.306 49.1202L40.3064 49.1187ZM33.8688 60.6273C30.3657 63.9138 25.8049 65.724 21.0269 65.724C18.3042 65.724 15.7271 65.1168 13.5716 63.9681C13.5113 63.9361 13.4506 63.908 13.3875 63.8835C13.3198 63.8583 6.68667 61.231 4.06888 53.2669C2.49134 48.4651 3.30448 43.3159 5.34423 39.3494C5.44802 40.6514 5.88614 41.9653 6.86614 43.1648C7.92817 44.4633 9.59402 45.2083 11.4377 45.2083C13.1425 45.2083 14.7787 44.5868 15.9272 43.5056C18.8615 40.7422 19.0669 37.5318 18.8524 34.4733C18.6747 31.9438 17.7073 29.9078 16.8528 28.1106C15.9015 26.11 15.0883 24.3982 15.2597 22.1975C16.179 22.9082 17.4227 23.3736 19.0721 23.2352C20.7041 23.1026 22.2455 22.0013 23.0002 20.4301C23.5788 19.2254 24.1838 16.6685 21.7392 13.076C20.9358 11.8959 20.3858 10.773 20.0883 9.69454C20.6703 10.6071 21.4611 11.4882 22.5168 12.2846C26.2534 15.1103 27.5259 19.366 25.7591 23.1248C25.5601 23.5468 25.3479 23.9796 25.1317 24.4199C23.4183 27.9083 21.2868 32.2503 23.7366 36.0994C24.8072 37.7804 26.656 38.7839 28.6831 38.7839C30.3496 38.7839 31.9626 38.107 33.1067 36.9257C33.8183 36.191 34.6315 34.9782 34.8259 33.1635C34.9738 33.4968 35.1051 33.8513 35.217 34.2253C35.9464 36.6701 35.0117 41.0116 33.0895 44.11C32.6577 44.807 32.1903 45.4273 31.7373 46.0288C30.642 47.4822 29.6081 48.8551 29.4522 50.7928C29.3209 52.4263 29.8215 53.9461 30.8612 55.0708C32.0006 56.3013 33.6962 56.929 35.4344 56.7325C36.0124 56.6679 36.5268 56.5306 36.9867 56.3368C36.4189 57.673 35.4561 59.1368 33.8689 60.6273L33.8688 60.6273Z" fill="white"/>
</svg>
